<mxfile host="app.diagrams.net" modified="2024-04-25T12:33:45.850Z" agent="Mozilla/5.0 (Windows NT 10.0; Win64; x64) AppleWebKit/537.36 (KHTML, like Gecko) Chrome/124.0.0.0 Safari/537.36 Edg/124.0.0.0" etag="amlzRwJeoE0DrVdkkpc4" version="24.3.0" type="device">
  <diagram name="Page-1" id="PUs2OT4bt5DuEQW99Rak">
    <mxGraphModel dx="1786" dy="793" grid="0" gridSize="10" guides="1" tooltips="1" connect="1" arrows="1" fold="1" page="0" pageScale="1" pageWidth="850" pageHeight="1100" math="0" shadow="0">
      <root>
        <mxCell id="0" />
        <mxCell id="1" parent="0" />
        <mxCell id="Ea7dNSbJi5SoWt5ZJQhr-13" style="edgeStyle=orthogonalEdgeStyle;rounded=0;orthogonalLoop=1;jettySize=auto;html=1;" edge="1" parent="1" source="Ea7dNSbJi5SoWt5ZJQhr-1" target="Ea7dNSbJi5SoWt5ZJQhr-2">
          <mxGeometry relative="1" as="geometry" />
        </mxCell>
        <mxCell id="Ea7dNSbJi5SoWt5ZJQhr-1" value="On-Prem&lt;br&gt;SQL Server Database" style="image;aspect=fixed;perimeter=ellipsePerimeter;html=1;align=center;shadow=0;dashed=0;spacingTop=3;image=img/lib/active_directory/sql_server.svg;" vertex="1" parent="1">
          <mxGeometry x="-160" y="528" width="38.5" height="50" as="geometry" />
        </mxCell>
        <mxCell id="Ea7dNSbJi5SoWt5ZJQhr-2" value="ADF" style="image;aspect=fixed;html=1;points=[];align=center;fontSize=12;image=img/lib/azure2/databases/Data_Factory.svg;" vertex="1" parent="1">
          <mxGeometry x="-31" y="300" width="68" height="68" as="geometry" />
        </mxCell>
        <mxCell id="Ea7dNSbJi5SoWt5ZJQhr-11" value="" style="group" vertex="1" connectable="0" parent="1">
          <mxGeometry x="196" y="237" width="334" height="171" as="geometry" />
        </mxCell>
        <mxCell id="Ea7dNSbJi5SoWt5ZJQhr-5" value="" style="sketch=0;pointerEvents=1;shadow=0;dashed=0;html=1;strokeColor=none;labelPosition=center;verticalLabelPosition=bottom;verticalAlign=top;outlineConnect=0;align=center;shape=mxgraph.office.concepts.folder;fillColor=#D7995b;" vertex="1" parent="Ea7dNSbJi5SoWt5ZJQhr-11">
          <mxGeometry x="40" y="61" width="50" height="45" as="geometry" />
        </mxCell>
        <mxCell id="Ea7dNSbJi5SoWt5ZJQhr-6" value="" style="sketch=0;pointerEvents=1;shadow=0;dashed=0;html=1;strokeColor=none;labelPosition=center;verticalLabelPosition=bottom;verticalAlign=top;outlineConnect=0;align=center;shape=mxgraph.office.concepts.folder;fillColor=#bfbfbf;" vertex="1" parent="Ea7dNSbJi5SoWt5ZJQhr-11">
          <mxGeometry x="133" y="63" width="50" height="45" as="geometry" />
        </mxCell>
        <mxCell id="Ea7dNSbJi5SoWt5ZJQhr-7" value="" style="sketch=0;pointerEvents=1;shadow=0;dashed=0;html=1;strokeColor=none;labelPosition=center;verticalLabelPosition=bottom;verticalAlign=top;outlineConnect=0;align=center;shape=mxgraph.office.concepts.folder;fillColor=#663300;" vertex="1" parent="Ea7dNSbJi5SoWt5ZJQhr-11">
          <mxGeometry x="226" y="63" width="50" height="45" as="geometry" />
        </mxCell>
        <mxCell id="Ea7dNSbJi5SoWt5ZJQhr-10" value="" style="rounded=0;whiteSpace=wrap;html=1;fillColor=none;" vertex="1" parent="Ea7dNSbJi5SoWt5ZJQhr-11">
          <mxGeometry width="334" height="171" as="geometry" />
        </mxCell>
        <mxCell id="Ea7dNSbJi5SoWt5ZJQhr-30" value="Bronze" style="text;html=1;align=center;verticalAlign=middle;whiteSpace=wrap;rounded=0;" vertex="1" parent="Ea7dNSbJi5SoWt5ZJQhr-11">
          <mxGeometry x="35" y="108" width="60" height="30" as="geometry" />
        </mxCell>
        <mxCell id="Ea7dNSbJi5SoWt5ZJQhr-31" value="Silver" style="text;html=1;align=center;verticalAlign=middle;whiteSpace=wrap;rounded=0;" vertex="1" parent="Ea7dNSbJi5SoWt5ZJQhr-11">
          <mxGeometry x="128" y="110" width="60" height="30" as="geometry" />
        </mxCell>
        <mxCell id="Ea7dNSbJi5SoWt5ZJQhr-32" value="Gold" style="text;html=1;align=center;verticalAlign=middle;whiteSpace=wrap;rounded=0;" vertex="1" parent="Ea7dNSbJi5SoWt5ZJQhr-11">
          <mxGeometry x="221" y="110" width="60" height="30" as="geometry" />
        </mxCell>
        <mxCell id="Ea7dNSbJi5SoWt5ZJQhr-4" value="" style="shape=image;verticalLabelPosition=bottom;labelBackgroundColor=default;verticalAlign=top;aspect=fixed;imageAspect=0;image=data:image/png,iVBORw0KGgoAAAANSUhEUgAAAZAAAAFACAYAAACSgSrjAAAAGXRFWHRTb2Z0d2FyZQBBZG9iZSBJbWFnZVJlYWR5ccllPAAAAyJpVFh0WE1MOmNvbS5hZG9iZS54bXAAAAAAADw/eHBhY2tldCBiZWdpbj0i77u/IiBpZD0iVzVNME1wQ2VoaUh6cmVTek5UY3prYzlkIj8+IDx4OnhtcG1ldGEgeG1sbnM6eD0iYWRvYmU6bnM6bWV0YS8iIHg6eG1wdGs9IkFkb2JlIFhNUCBDb3JlIDUuMC1jMDYxIDY0LjE0MDk0OSwgMjAxMC8xMi8wNy0xMDo1NzowMSAgICAgICAgIj4gPHJkZjpSREYgeG1sbnM6cmRmPSJodHRwOi8vd3d3LnczLm9yZy8xOTk5LzAyLzIyLXJkZi1zeW50YXgtbnMjIj4gPHJkZjpEZXNjcmlwdGlvbiByZGY6YWJvdXQ9IiIgeG1sbnM6eG1wPSJodHRwOi8vbnMuYWRvYmUuY29tL3hhcC8xLjAvIiB4bWxuczp4bXBNTT0iaHR0cDovL25zLmFkb2JlLmNvbS94YXAvMS4wL21tLyIgeG1sbnM6c3RSZWY9Imh0dHA6Ly9ucy5hZG9iZS5jb20veGFwLzEuMC9zVHlwZS9SZXNvdXJjZVJlZiMiIHhtcDpDcmVhdG9yVG9vbD0iQWRvYmUgUGhvdG9zaG9wIENTNS4xIFdpbmRvd3MiIHhtcE1NOkluc3RhbmNlSUQ9InhtcC5paWQ6RDEzMjU3QUQ3NjVEMTFFOEJEMUVCQUE1NThGRkUzREQiIHhtcE1NOkRvY3VtZW50SUQ9InhtcC5kaWQ6RDEzMjU3QUU3NjVEMTFFOEJEMUVCQUE1NThGRkUzREQiPiA8eG1wTU06RGVyaXZlZEZyb20gc3RSZWY6aW5zdGFuY2VJRD0ieG1wLmlpZDpEMTMyNTdBQjc2NUQxMUU4QkQxRUJBQTU1OEZGRTNERCIgc3RSZWY6ZG9jdW1lbnRJRD0ieG1wLmRpZDpEMTMyNTdBQzc2NUQxMUU4QkQxRUJBQTU1OEZGRTNERCIvPiA8L3JkZjpEZXNjcmlwdGlvbj4gPC9yZGY6UkRGPiA8L3g6eG1wbWV0YT4gPD94cGFja2V0IGVuZD0iciI/PjddjBIAACDqSURBVHja7N15dFzVneDx33u1aimt1uJFXuR9xQY6xjZgiCGYDpAwAdIQaHAykIGEppOZnnQyk3T7j0y6z+khnO6cEJjpTkhOz0xmSOOk6QRPdwcYAsbBYExsY4RledMuq0pSqfZl7i2qbHnXVlWvqr6fc+pIlm2VdKv0vrrvvvfKSCaTAgDARBkEBABAQPIxgIbBIOSZeg7PU2/mn/OxteqxqRnzZ5d6c02Wv5Q31X2Gx/w5pD92zr/pUf/mAx41SzxvGAQCQkCK8Ae7Wr1Zm35/mRrj5vT769Ubt7rVqI+tK5Lv9X0dlfRz6dX0x3zq/XfT/+SQer+XZwUBISAEBGNmA+ptsxq/ZWNmEHrWUMsIXXDMgunZTGYGczR9e1f9eYgRIiAEhIAU2w/o5nQY5mdmD2q8bmRksjLWu9SbkJ7FqPd1ZA7J+bvUQEAICAGx3A/iFZkZRDoU89W4LOfZYYnHpkPPVNJh0VE5aprmbkaGgBAQApKXWKibXozenA7FBp4FBfk47k2HZXd6pvIqAQEBISDT+QNWrWOhvsdr0ruj9PtlPOpF+3jr3WB6nWW3epx1VI4REBAQAjLeH6h56rZVvbs+HQt2Q5V2ULrTQXlVPRdeUbd9BAQEhICcnmGoNzeot7eot1vV97KARxSXCcpL6d1dLxX64cVs+wgIAZmgRCKxXn3NW3U0WL/AFDfAeh3lFXXbaZrmTgJCQFBkAUmfc6GD8Sn19tOcZ4EsPtdeUM+vn6t3dxTCuSls+wgIAblINNTt0+rdTDRY+AYxISAEhIBc9IdBr2d8Ws801Nd0Zyk9BoP+k+INnDjrYz1Db0siefFz6CLxfgnHD0/pfh22FnHb5lzy38yq2XjWnz3uRmmsWlhqMXlZvfmpel7usNK6Cds+AlLyAdFrGurNF9XtD4pppjEc7Jf+kcMSjg7LqdH9kpSI+CNvnxl3OSqmUdjP3UQiKUmj9fSfK51Xqe/LKdVli6XC1SC15S1SVzmn2GLyP9Wb56ywZsK2j4CUZEDS52f8gXr3iUI91DYYGZYu3wEZDp0Uf+i4jEYPqBnDsNqqnhCbLcYTa2xokoYK6Hz1wLvE47pSyhyNUluxSBo8i6SqrKFQQ9KhnrvPqHd/lK9ZCds+AlJSASnE2UaX96AM+A/LUPDD05GwGR08caZRLDFLzVyqUnGpdM+VKvccWdhYOAfY5WtWwraPgJREQFQ49HkaX7PyhQgz6xBdvjckEG2XWLxd7LYBniB5FE14xG62SoVjpTRVXSU15S2WXn9Jz0q2q9tzBISAEJCpP8E/pW5/ZsXXvmjv25VaqB6JvCOJ+AF2OxWI1O6w5NLUbEUv8M+tv1IcNpflQqLe/KV63v8om1cTZttHQIoyIOoxeVDdvmaV9Y1oPCwf9rwivX41u1DBsJtdPPBFJBafIW7HOqmruEoWNtxgmXWV9JnvOiQ/yEZI2PYRkKIKSHpX1dNWuKSIXrvoGPi1+EI7CUYJBsXjvkHm122VuTPyP/lNh2S7aZrPEBACQkDOfyLrixjqcNyaz1nG+1071SzjZYlG32CXFNK/1CTFMNdKk+dWWdZ8i5Q5q/IZEn214K9M1+uZsO0jIAUdkPRlRv40vbsq50dVZaLRPfyS2lC8KabJi2PhMs9ZuSLvMUn/svX1qZ7hzraPgBRsQPK5u+q9E78gGpi2mKyafUfOF+LVdsurfna+MpUjttj2EZCCC0j6OlXf0U/+XH6d+jDb/V0/EX9oB7unMK30kV1O202yevbDOT9MWP0s/Ur9LN07mdkI2z4CUlABUWO9VJ80lcvDcg927pSjgz8Wm3mIBwtZp09qbKl5WNa03JHLiHSnI/LqBP8fDxgBKYyApA/NfTpXax06HB2nnuRkPuQpJGUyq/oJWTf37lyG5DumaX6DgBCQoglIepfVD/VvSIQDhCTrEdmlj2Yczy4ttn0ExNIBScfjhVwcnts33C5vHftjztmAJenLqqyZ+d2cnFeiXylRX/bnchFh20dALBuQXMVDH4q7q/1JGQ3/H46oguXZzZtl48JvZP0Q4PFEhG0fAbFkQHIVD322+DsnHxOHOcIDgYIRj9tlafNTWb9i8OUiwraPgFgyIIlE4h+y/aqA+lyOTt+fM+tAwapxPyrrF/7bXERkw4WupcW2j4BYLiAqHvpFnp7K5n2+1vZfJRD9Hww+Cp7epXX9ku1ZPRFRH8RimubnCQgBsXRA1FhekT4KJGuH6r78wZ9JJPYiA4+ioc9o37ry77J9Nw+de9Y62z4CYpmApNc99mbzEuy72/+7+EJPM+goOk77bXLj0u3ZnIXoS5+sU7djBGT6mAzBtD1Bv5PNeLT1vEI8ULT0rHpPx0+y+Yterd6VxUgzA7HcDESNYXX6cgpZ2XWlD9X95wPXcw0rFDV96fhNi3Zm+wWt1qqf033MQJiBWGn28VA21z3eOfoT4oHi3xiZhrx9/HvZ/ll9gpFmBmKpGUgikTiSzcuy//K99QQEJTMLuWHpK1k70VBt74L6Z1Xdetn2MQOxwBM+cUs24zEc7CceKKlZSP9wezZ/4dN7Ch5ipAmIVWYg12Tz8/cMHWCQUVL6RvZn9fOrmcd6RpmAWIJ+jY9sfv7RSD+DjJISjPZl+y7mM8oExCqy+mSscDYwwigpbkd9tu9iGaNMQKwiq0/GxqqljDBKSn3Foqx+fr0OkkwmmxhpApJ34XC4Npufv6Z8poRjZQw0SoI+CqupZmXW7+fDDz9cxGgTkLwbHBzM+n3MrHqMgUZJcDmulwpnVn8nk3g8Lq+//vpJRpuA5J3P58v6fayd+xlmISgJq2c9nvX7CASCDPQ0sTMEU9Pfn/2jpPSlrlfP+ms51PMFMU2aP10i8Zi6xSf1f502m7rx4zOdPO57paFqYdbvx+/nBdgIiEV0dHTI5s2bs34/CxqulH7/V8UbeKrkxzwYjUo8mUi9PxwOnPV3w5Gz/zwa86tIjOb06yuzV4rbVnFmmm+IVDrKz/xCoH4JKHO4CdEYpjFPrmn9Sk7ua3iEgBAQi9ixY4fcfffdUlFRkfX7+tiCB+TVNp+Eoj8q6hlBKBZJvR9PJFQAQqm/C6kIBFUMCiJw6us892s9FRrHb+COGrGbH72wUpWzPB0jl5qB2tRbh9iKdvbZJNct/pGKiC0n93bo0CE2XATEGrxer+zdu1euvfbanNzf5iWPy+uH3eIP/6AgxysQDUssnhR/NHg6EJF4WL31lfxzaSR6Zgy84Qv/myrHDBUSWyowOigVaiZjV2/dKjCFyDBa5NpFfyduR1VO7q+7u1t8viE2XATEOl544YWcBUTbtOhhOdjZKke9/1FsFn1J9JiaQYTUbELvYgrGwuoWOGsDickZjg5cNDC1riYpszml3OFM7SIrV1Gx8pqZ07ZBNiz8LzmLh3ak4yhPIgJiLXv27JG2tjZZsmRJzu5zxewtUu/53/LW0UfEYcvvhlnvbhqNRGRUzSr80ZD4I16JJiM8MXI9Gw73ivecj+n1mHJ7RWoNptJRJhVOpyV2hTV5Hpc1LQ/kbLdVavYbCMjhw4d5ohAQ63nmmWfk29/+trjd7tz9EFYtlFtW/lJ2tT8pwejzuftBjIZVMEIyHAmqWcVwwaxNlKLMeszYNZgKe414nB51c0uluuVy95feZbW25S+k0ZP7q4ns3v1bnhAExLqzkJ/97Gfyuc99Lqf3qw/xvX7J16Vv+B5569gfi93sykowfKFA6ggn/VsuCpteb9K3nvQBaw7DKVWuWql2VabWVsoc2QnKrOo/kZWz787prCNDL5wfP3GCB5+AWNezzz4rq1evljVr1uT8vhvVbOSTq/9R3jvxD9Lp+66YZmDSn0uvXwypGYYv5BdvaIDdUUVOP76nQr2pm+a0VUidq05qXBVqluIU+xQPM6503SFXzn1cypx1efn+Br1eefudvTzQ2ZhR8qpcU7N58+azBrC2tlaee+45qa6uztvXlEjG5d3jfy99I8+IYYTG9X/0LGMw6BdfeIjFbpxFH15c46qW+rKqCc1OdDjWtjwqFa7GvH3tkUhEfvXSS+cdeZVMxOc/9NBDx3h0CYilAqJdffXV8q1vfSuvEdHi8bDsO/lTFZLnVEjOj4Je/PaGRqV39BSH0WJc9PrJjLJamVHuueAJkImkXWrLPyurZ9+f13Bk4vHrl1+W3t7zX1+EgBAQywbEShHJzEhOnNotbf3fk1j8sIrGkPQHhljPwJRnJs0VDanZicPWIC21/04WNt4kTnt53r+2S8WDgBAQywfEahEZq6P/gIrJW/J2999IJPEODyIm5fdm/kCWNKyX1oZVYjOts5x6uXgQEAJSEAGxckS0eCImx099QEww4WjMm7FcnDaX5b6+8cSDgBCQggmINnfuXNm+fbu0trZa9vvIxKTj1D7Z3/8LGQz9lAcXUmm/RZY33GnpaGQMDQ3Ja795XU6dOnXZf0tACEjBBCTjm9/8ptx0000F8X0NBwdVUA5J++AeOdD/HLOTErK0drssmbFR5tWvkBmeWQXxNeurYr+x602JxWLj+vcEhIAUXEC02267TR577LGcXL13OnV626VnqEM6vO9I2+BPCUoRWTXjL2VuzRpprlogs2sXWmo943L0Lqt39u6VDz5om9D/IyAEpCADouldWno2kstrZ00372if9A4fk66hD6XDt1tOjPw1T4YC0Fz+BVlQe63MrloizdXzC2aGcSH6BME33tg1rl1WBISAFE1AMu66667UpU/q6uoKfhz0Gkr/SKcMqNtgoEv6Ro/I/oGv8QTJo9bqP5WmyqXSXLlAmlQs6iqbLb2GMV6hUEj27z8gBw4enPTnICAEpOADkqFnI/py8Lm8EGMuZyq+QL8MjnZLj79dgtEhwjLN9JpFubNG5lStkKqyGVJb3ljQM4tL+aCtTd59d18qIlNBQAhI0QREW7FihTz66KN5uY5WPugXkRr098hIyCvDwYHTcRkKd7I77Bx6t9OM8iXisLlTkahwVUuNikS1ikWZs6IkxqC3r0/eemvPpHZXERACUvQBybj55pvlnnvuKej1kemQ2SWm6d1i4VhAwvGAdA2feTnSQp/J6JmDjoLWWNEqFU79kraO1O4mrVh2OU3FwMCA/O53+6f9SroEhIAUZUAyrrvuulRISmVGMlX6sONAZOT8DVA6PhdzbpTGI7Oxv5ixERjLZS+T2opGHqw8hoOAEJCSCEiGPpP9wQcfJCQoCfo1y/cfOCBdXd1ZvR8CMj14PRCL0y9UpW86JHpGsmrVqoI7hwS4lHg8Lp2dnXLw/fcvewkSEBBMISTaI488Ihs2bLD0pVGAy9HncRxpPyLtR45M+agq5Ae7sKYo27uwLkXPSu644w5Zu3atJS/WCJxLnzmuZxsHDr4/bUdUTQa7sJiBMCsZMyu57777UrMSffRWMZ5PgsKld1F1d/fIyc6T0q5mHOO9XhWYgTADyQMdEz07WbZsGeslIBrMQAgIAZkcfbmUjRs3EhNknd491dPTIydOdsrRo0ctPdMgIASEgEyQvhLwunXrUru59AUdganSC+H9/f3S1dmVtXM2CIh1sQZSQl588cXUTautrZVbb701tQC/YMECaWzkBDdc3siIXwYGVDD07qmTJzl6ihkIM5BSmYFcir4Wl76go97V1dLSQlBwOhhe76D09fVLZ1en+HxDRfF9MQNhBoJpdPDgwdQtQ89QtmzZIsuXL0/t7po9ezZrKEVOr2F4fT7xDg6mFsD7+vuZYYCAYOK8Xq88//zzZ31MH9l15ZVXyrx581JR0bMUDhkuTPooKf0Y+4aGxOf1SU9vb17PywABQZEbe95Jht71pW96pqKDUlNTwwK9xQypSOhdUX7/SGpXlNfnLZpdUSAgKGDn7vrK0FcT1mspek1F7w7TYamvr2c3WJbo3U/Dw8MSCoVToUjNLHw+ri0FAoLC89prr13073RcmpqaZOHChamg6NDY7XZmLpehD5lNxOOpS53rXVB6NhGLx7J+5VqAgKAg4qJldotpM2fOlIaGhtT7+m1lZWXq/WJYf8msQ2jRaDS1q0kLBIMylN7FNDwyzO4mEBBgvC62W+xS9EmSY4MyNjya/jv9sfEoKysTwzAm/HXr3UYxFYKMsSHIKKST7QACgpKQOUFyOtz3ufs5ugwYB5MhAAAQEAAAAQEAEBAAAAEBAICAAAAICACAgAAACAgAgIAAAEBAAAAEBABAQAAABAQAQEAAACAgAAACAgAgIAAAAgIAICAAABAQAAABAQAQEAAAAQEAEBAAAAgIAICAAAAICACAgAAACAgAAAQEAEBAAAAEBABAQAAABAQAAAICACAgAAACAgAgIAAAEBAAAAEBABAQAAABAQAQEAAACAgAgIAAAAgIAICAAAAICAAABAQAQEAAAAQEAEBAAAAEBAAAAgIAICAAAAICACAgAAACAgAAAQEAEBAAAAEBABAQAAABAQCAgAAACAgAgIAAAAgIAICAAABAQAAABAQAQEAAAAQEAEBAAAAgIAAAAgIAICAAAAICAAABAQAQEAAAAQEAEBAAAAEBAICAAAAICACAgAAACAgAgIAAAEBAAAAEBABAQAAABAS4qOTsVQzCNBp2VDMIICAogXg0LZHodfdKfPVWBmMa+Jy1srtyifjtHgYDBARFzFkmsfX/RgybTeIrr5Nk3QLGZArihkPeK2+VhGnKPs+i1J8BAoLi3OBdc7eIpyb1fioim+5KRQWT01Y5X4I2e+p9v+lM/RkgICg6iQXrJdGy4qyPJavqJXHVpxicSTjlbJDjzrqzPqb/3OdqZHBAQFA89K6q+NUXXvOIt66VxKJrGaQJCNvc8l7l3Av+3b7yeRKwVzJIICAoAhW1Erv2s5fcVRW7+laOzBonvc6xp2q5RAz7hWd6pil7KpemIgMQEBQuvWh+w7bT6x4Xo9dDops+S0QuI2GY8nbVstR6x6XodREdGSICAlJAv2njnJnFloclWTO+ffKGwyGxjZ/hyKxLOKBmFl57+bj+rY7MXs8yjsy6CB1X1osIiGVEt3yRiIwR//gjKgazJjxjid94PxG5gDbPYulyVk3o/wzZXKkZCxE5J652j7xRvVLCJjM0AmIVnhoikomAikdiZuuk/nvSXfFRRJqW8JySj3Zbva/i0XHOEVfjpWcsOiLszvrIoLNedqmZ2cXWkEBAiEi+6AXzLQ9POh5jIxLd/EDq0N+SnsWpmcO7VSvPO1x3MhHZ7VlZ8kdn9bia5S3PotSBBiAglo1IbOuXS25BWO920vGc8G6ri0itiay/o2QveRKylcubNaukf5xrHpejF9Zf9yxPnT9Sio5ULJB9lfPYPhGQAtiY6t+gr7tXEitvKo3vV8VS73a63NFWE46IzSaJNTdI4mN3ldTzR1/falf18ssebTVRqUN8Pa3S6Z5TMmOZ2QX4oZsF82xih+A0S12qY+1NkqyfJbb/9+Pi/QFVG/dY67rU95st8cVXS0KP4+vPizHcVbRjqXdZtVfOn/R6x3jtr5gtgw6PLA4cE3c8ULTjGVUBPlC5WHodnFhJQAp1A9uyQpK3/4nYfvtzMXrbimfWoc8u33RX6nIkRk7ub5ZEtz4q9rbdYr77YlHOOvSFETPXtso2fURXj32lrAh2y+zQyaIbTz3LaitvYrGcgBTBxlZtZGM3fV7Mjv1i2/MzkUiwsH9TXr1V4ss3pdYpcjqrU/cXX3mtivLyoglyrmYdF/zlxjRTs5FeV60sG+2Q8pi/4MdTrx0drFw4bWtHICDWmY0sWCWJxnli2/cvKia7Cy+Eeq1jzcdTswEjn1+HCnL0xgfFfux3Yr63U2TUW3jPBcNMHRV02D0zZ7OOi9Eb2/7qlbI41CctwU5xJCIFN556d9WJstnS7pzBUVYEpIhVeCS+8U5JrNgk5sHXCyIkqXCsvEGSDdZZfE2tMbWulVjLSrGfOFAwIdEzjh5Xk7S7m/IejnPphWa9AV4YGZDZoW5xxUMFMZ5dKsKHyxrYXUVASoe+xIfVQ2LFcJwXEr1bqwBCon9DTs04LL6h07+965Do24LIoMwLnLBkSFKXInE2Eg4CQkh0SOJX3CS2rg/EOPRGfo80qqiVxOJNkpi9ZNzXsbJaSGwDJ8ToahPz0Ct5/+34lLNWep31E74MiRXodRl9mxMZkgYVk/qIV2zJaF6/Jn0eS5drRkGOJwFBFjfcntThqqJuxmCXmN1HxOhuy81CsYpGvHW9JGcusvRsY7whSZ0Jr26xNVtyHhO9tuF11Eufq0ZO2muKYn/8SWd16iayIOcx0RH2OWrklBrPHluV5Xb7gYBYb1ZSN0vi+ozuldeKERoVw9urQqKC4usRo3P/1D//7FWSqFOhqG2UpGdGQc00phITc9QrpoqzeNU49h1Toe6Y8n3oC/MNq5vfUSGDtorUBQyL2diYNMQCUhUPSGV0VCrj6hYbmfLn17umwqZLRmye1NFhHE1FQDCVjb27Qs0MPtoInjbiU2HxizkycOZj/SfVr2tnfiNMVtaKUXnmzPCECoU4nEUbi/HEJLW7cMz3n4xGU1GRcPCjtxnDalwDIxI1nBJ1VKm3DhlVcfgoGC4Jq4/rmUapb9xSR2/pMXDNOP0xHRUzmZD66JmY2JKxVGAyYob99HhmxjRouokFAUFOeGrUzKFG4mN3N7WuZVwmGZXUrhI5/zpJw85+6S2fozZsnMk8kahonP1dWjhwGgBAQAAABAQAQEAAAAQEAAACAgAgIAAAAgIAICAAAAICAAABAQAQEAAAAQEAEBAAAAEBAICAAAAICACAgAAACAgAgIAAAEBAAAAEBMi2uGFnEAACAkxczGZjEAACAgAgIAAAAgIAICAAAAICAAABAQAQEAAAAQEAEBAAAAEBAICAAAAICACAgAAACAgAAAQEAEBAAAAEBABAQAAABAQAAAICACAgAAACAlhAxOZmEAACAgAgIAAAAgIAICAAAAICAAABAQAQEAAAAQEAEBAAAAEBAICAAAAICACAgAAACAgAAAQEAEBAAAAEBABAQAAABAQAAAICACAgAAACAlhA0jQYBICAABMXNZ0MAkBAAAAExKKS8USSUQBAQDBhRjjgZxSAwuFIRPSbHkaCgORfLDLAIACFw50Id2/bti3MSBCQ/IuEjjIIQOEoSwQOMgoExCIjaPyGQQAKgzMZE1ci/B4jQUAswd5c++1kPJFgJADrmxcelGQ8/hwjQUAs4bVtHw+b/oGXGQnA+ppC/Xu3bdu2j5EgINZRVvF1BgGwtjmRISmP+rczEgTEUt54/Oa3jODIMUYCsK7m8MCgSPwlRoKAWE7SMG5nLQSw7uyjLjTweQ7fJSCWtOuJT/zOCPn/gpEArKUyEZElo0e/v23bH/6c0SAg1o3IV7f+Jwn5OUQQsJCV/qPH7LHRrzISBMTyorbqT0gsEmIkgPxbHuiJVocHbmHXFQEpCHu+vL7XSESvT8ZiUUYDyJ/5EW+sZfTY7SoeHzAaBKRg6KOyzER4ExEB8qM1fCq8ZKjttm3b/nAno0FAiAiAcVkW7AkuGv5gPfEgIEUREYlFgowGkJt4zPUf2cDZ5gSkaCLiKE/ONEIjBxgNIDv0RRKv9HccUvFYQDxyx0gmeUG9KQ2gYYz732588ldPJSuqn2DUrG1DnSExh1P67ZUMRgFoiAVkSfDo9798751fmsj/Y9tHQAoqINr6v/qnLWZZxT+K3VnG6BEQTM3iUJ9/TrD73kceuOfFif5ftn0EpOACol3/w5ero77IL6Xcs5ERtJ6r6+1i2G0ExMLK4jFZETz+Vn2wRx+m2zuZz8G2j4AUZEAyrnny/35SHI7nDKernpG0jnUNLrGbQkAsyEwkZGF0wDcn0P3AZGYdBISAFE1AMjY+tfOvEo6yPzLsdgcjSkBwYTMjI/G5oa6nq8On/sN0nFnOto+AFEVAtKu/t7vJHhv+X0ZZxQ2MKgHBGXp31bLgybcbgl2fUeGYtpdNYNtHQIomIKdnI8/+5orkaOBvpbzyKkaXgJR6OOaF+z9sDvd/6YsP3P3P0/352fYRkKILSMb6p3fNM0PDKiSeLYwyASkl+vLrc8Kn3m8O9T+RjXAQEAJS9AEhJASkFMMxL9T39uzR41/IxcmAbPsISNEH5KyQBIe2i8t9t9id5Yw8ASkWjbHRaH3U92aL/9jjuTyLnG0fASmZgIy14W/+dZuRiP37pNuzkkeAgBQivb4xK+brrA8PfrcmPPC9fLxeB9s+AlKSATlrVhIZ/YY47PeLjVkJAbG+ORFfsCY2+k+zRo/953y/TgfbPgJS0gE5a1byzOufTQZGvyTu8g2Gadp5ZAiIVdTGAomG6Mi79eFTz/zR/Xc+a5Wvi20fASEg57juh792xSKuTxMTAmKFaFTHhn9YG+r/b1Z8SVm2fQSEgIwjJhIKPpx0ujcTEwJS6tEgIASEgEzS+qd3bTYjo/epL/oT4iqbz6NHQKZCX5eqKe4frYoF9nhi/r+vC/X92OrRICAEhIBMg9QVgSPOrUYoeE/SbrtR7K5aHk0CcjkzYoGYJxFs94RHdjSHup6ezkuLEBACQkAKlD6iy0hGbjci4dvF4fi9Ug4KATmjOh5Wt2BneTy4qy409IPHH/jUvxbL98a2j4AQkCzRF3d0OGLXSCj4++qbvE5cZcsJSHHTLwtbGwv5y+PhD8tjATVFHf1lMQWDgBAQApLfWcpm00xcI+HwJ5OGsdRwuhoJSOHSu6Mq46ET7kT4bWcs9ovm0IlfbNu2bahUns9s+wgIAcmzj33/tfVqDJaZ0cjHxDQ2iWm2is3hISDWoXdDuRPR/rJE5GhZLPS+IxH/l1KLBQEhIASkQOgF+nDIvTY1WwmMLhGHc516ns1RM5YGApLdUNiTcW91LHDSJrF2Wyz+ytzgsR2FvNBNQAgIAcFperFevZlvGMm1RiLSLAm5Rf0oV4rDtZiAXF5jbDSsfmT9lfHQcTMZ71TBeLM8ETrcEOzeUUiH0BIQAgICMu0+2iVmd6vZS7P647LUB2ORmyVplCcNs86w2+cVY0Ayswf9flUi2BdL2rrtyVjIHY/8NmLaB5tCg/uLeUGbgBAQAoKcz2TOPA7xZeqxaD6zcTCuMJKJRonHTl9kcrwBurLRHbMZSftEAqJfy8KdiA2pn6ZE5mOeeMgXF/Os3UdV0ZF3QjbXcf2+Kxn3zxnteFHNHHp5RAkIAQEAEBAAAAgIAGDa/X8BBgDVO37WQeHlLwAAAABJRU5ErkJggg==;" vertex="1" parent="1">
          <mxGeometry x="149" y="182" width="105" height="84" as="geometry" />
        </mxCell>
        <mxCell id="Ea7dNSbJi5SoWt5ZJQhr-15" style="edgeStyle=orthogonalEdgeStyle;rounded=0;orthogonalLoop=1;jettySize=auto;html=1;entryX=0.015;entryY=0.567;entryDx=0;entryDy=0;entryPerimeter=0;" edge="1" parent="1" source="Ea7dNSbJi5SoWt5ZJQhr-2" target="Ea7dNSbJi5SoWt5ZJQhr-10">
          <mxGeometry relative="1" as="geometry" />
        </mxCell>
        <mxCell id="Ea7dNSbJi5SoWt5ZJQhr-19" style="edgeStyle=orthogonalEdgeStyle;rounded=0;orthogonalLoop=1;jettySize=auto;html=1;" edge="1" parent="1" source="Ea7dNSbJi5SoWt5ZJQhr-16">
          <mxGeometry relative="1" as="geometry">
            <mxPoint x="900" y="318.5" as="targetPoint" />
          </mxGeometry>
        </mxCell>
        <mxCell id="Ea7dNSbJi5SoWt5ZJQhr-16" value="Azure Synapse&lt;div&gt;Analytics&lt;/div&gt;" style="image;aspect=fixed;html=1;points=[];align=center;fontSize=12;image=img/lib/azure2/analytics/Azure_Synapse_Analytics.svg;" vertex="1" parent="1">
          <mxGeometry x="648" y="284" width="60" height="69" as="geometry" />
        </mxCell>
        <mxCell id="Ea7dNSbJi5SoWt5ZJQhr-17" value="Power BI" style="image;aspect=fixed;html=1;points=[];align=center;fontSize=12;image=img/lib/azure2/analytics/Power_BI_Embedded.svg;" vertex="1" parent="1">
          <mxGeometry x="907" y="277" width="51" height="68" as="geometry" />
        </mxCell>
        <mxCell id="Ea7dNSbJi5SoWt5ZJQhr-18" style="edgeStyle=orthogonalEdgeStyle;rounded=0;orthogonalLoop=1;jettySize=auto;html=1;entryX=0;entryY=0.558;entryDx=0;entryDy=0;entryPerimeter=0;" edge="1" parent="1" source="Ea7dNSbJi5SoWt5ZJQhr-10" target="Ea7dNSbJi5SoWt5ZJQhr-16">
          <mxGeometry relative="1" as="geometry" />
        </mxCell>
        <mxCell id="Ea7dNSbJi5SoWt5ZJQhr-20" value="" style="image;sketch=0;aspect=fixed;html=1;points=[];align=center;fontSize=12;image=img/lib/mscae/Databricks.svg;" vertex="1" parent="1">
          <mxGeometry x="478" y="378" width="78.13" height="75" as="geometry" />
        </mxCell>
        <mxCell id="Ea7dNSbJi5SoWt5ZJQhr-21" value="Azure Data Lake Gen2" style="text;html=1;align=center;verticalAlign=middle;whiteSpace=wrap;rounded=0;fontStyle=1" vertex="1" parent="1">
          <mxGeometry x="231" y="202" width="144" height="30" as="geometry" />
        </mxCell>
        <mxCell id="Ea7dNSbJi5SoWt5ZJQhr-23" value="Azure DataBricks" style="text;html=1;align=center;verticalAlign=middle;whiteSpace=wrap;rounded=0;fontStyle=1" vertex="1" parent="1">
          <mxGeometry x="343" y="414" width="115" height="30" as="geometry" />
        </mxCell>
        <mxCell id="Ea7dNSbJi5SoWt5ZJQhr-24" value="&lt;b&gt;&lt;font style=&quot;font-size: 14px;&quot;&gt;Ingestion&lt;/font&gt;&lt;/b&gt;" style="shape=callout;whiteSpace=wrap;html=1;perimeter=calloutPerimeter;position2=0.74;fillColor=#d5e8d4;strokeColor=#82b366;" vertex="1" parent="1">
          <mxGeometry x="-134" y="212" width="120" height="80" as="geometry" />
        </mxCell>
        <mxCell id="Ea7dNSbJi5SoWt5ZJQhr-25" value="&lt;b&gt;&lt;font style=&quot;font-size: 14px;&quot;&gt;Loading&lt;/font&gt;&lt;/b&gt;" style="shape=callout;whiteSpace=wrap;html=1;perimeter=calloutPerimeter;position2=0.41;fillColor=#d5e8d4;strokeColor=#82b366;" vertex="1" parent="1">
          <mxGeometry x="646" y="195" width="120" height="80" as="geometry" />
        </mxCell>
        <mxCell id="Ea7dNSbJi5SoWt5ZJQhr-26" value="&lt;b&gt;&lt;font style=&quot;font-size: 14px;&quot;&gt;Reporting&lt;/font&gt;&lt;/b&gt;" style="shape=callout;whiteSpace=wrap;html=1;perimeter=calloutPerimeter;position2=0.41;fillColor=#d5e8d4;strokeColor=#82b366;" vertex="1" parent="1">
          <mxGeometry x="907" y="182" width="120" height="80" as="geometry" />
        </mxCell>
        <mxCell id="Ea7dNSbJi5SoWt5ZJQhr-29" value="&lt;b&gt;&lt;font style=&quot;font-size: 14px;&quot;&gt;Transformation&lt;/font&gt;&lt;/b&gt;" style="shape=callout;whiteSpace=wrap;html=1;perimeter=calloutPerimeter;direction=west;position2=0.24;fillColor=#d5e8d4;strokeColor=#82b366;" vertex="1" parent="1">
          <mxGeometry x="398" y="453" width="120" height="71" as="geometry" />
        </mxCell>
      </root>
    </mxGraphModel>
  </diagram>
</mxfile>
